<svg width="25" height="25" viewBox="0 0 25 25" fill="none" xmlns="http://www.w3.org/2000/svg">
<g id="Base Icon Phosphor">
<path id="Vector" d="M20.367 10.0002L12.867 17.5002C12.7973 17.5699 12.7146 17.6252 12.6236 17.663C12.5325 17.7007 12.4349 17.7201 12.3364 17.7201C12.2378 17.7201 12.1402 17.7007 12.0491 17.663C11.9581 17.6252 11.8754 17.5699 11.8057 17.5002L4.30573 10.0002C4.165 9.85943 4.08594 9.66856 4.08594 9.46953C4.08594 9.27051 4.165 9.07964 4.30573 8.93891C4.44646 8.79818 4.63733 8.71912 4.83635 8.71912C5.03538 8.71912 5.22625 8.79818 5.36698 8.93891L12.3364 15.9092L19.3057 8.93891C19.3754 8.86923 19.4581 8.81395 19.5492 8.77624C19.6402 8.73853 19.7378 8.71912 19.8364 8.71912C19.9349 8.71912 20.0325 8.73853 20.1235 8.77624C20.2146 8.81395 20.2973 8.86923 20.367 8.93891C20.4367 9.00859 20.4919 9.09132 20.5296 9.18236C20.5674 9.27341 20.5868 9.37099 20.5868 9.46953C20.5868 9.56808 20.5674 9.66566 20.5296 9.75671C20.4919 9.84775 20.4367 9.93048 20.367 10.0002Z" fill="#3D4460"/>
</g>
</svg>
