<svg width="35" height="35" viewBox="0 0 35 35" fill="none" xmlns="http://www.w3.org/2000/svg">
<g id="Base Icon Phosphor">
<path id="Vector" d="M23.8054 23.804C23.6647 23.9447 23.4739 24.0237 23.275 24.0237C23.0761 24.0237 22.8854 23.9447 22.7447 23.804L17.4414 18.5007L12.1381 23.804C11.9975 23.9447 11.8067 24.0237 11.6078 24.0237C11.4089 24.0237 11.2181 23.9447 11.0774 23.804C10.9368 23.6634 10.8578 23.4726 10.8578 23.2737C10.8578 23.0748 10.9368 22.884 11.0774 22.7434L16.3807 17.4401L11.0774 12.1368C10.9368 11.9961 10.8578 11.8054 10.8578 11.6065C10.8578 11.4075 10.9368 11.2168 11.0774 11.0761C11.2181 10.9355 11.4089 10.8564 11.6078 10.8565C11.8067 10.8564 11.9975 10.9355 12.1381 11.0761L17.4414 16.3794L22.7447 11.0761C22.8854 10.9355 23.0761 10.8564 23.275 10.8565C23.4739 10.8564 23.6647 10.9355 23.8054 11.0761C23.946 11.2168 24.025 11.4075 24.025 11.6065C24.025 11.8054 23.946 11.9961 23.8054 12.1368L18.5021 17.4401L23.8054 22.7434C23.946 22.884 24.025 23.0748 24.025 23.2737C24.025 23.4726 23.946 23.6634 23.8054 23.804Z" fill="#036A71"/>
</g>
</svg>
