<svg width="65" height="65" viewBox="0 0 65 65" fill="none" xmlns="http://www.w3.org/2000/svg">
<rect x="0.9375" y="1.32324" width="63" height="63" rx="15.5" fill="#FCD8D0"/>
<rect x="0.9375" y="1.32324" width="63" height="63" rx="15.5" stroke="#E2E6ED"/>
<path d="M41.4902 10.4233H23.3817C19.8434 10.4275 16.4512 11.8351 13.9495 14.3373C11.4477 16.8395 10.0407 20.2319 10.0371 23.7702L10.0371 41.8787C10.0413 45.417 11.4489 48.8092 13.951 51.311C16.4532 53.8128 19.8457 55.2198 23.384 55.2233H41.4925C45.0308 55.2192 48.423 53.8116 50.9248 51.3094C53.4265 48.8072 54.8335 45.4148 54.8371 41.8765V23.768C54.833 20.2296 53.4254 16.8375 50.9232 14.3357C48.421 11.8339 45.0286 10.4269 41.4902 10.4233ZM50.3313 41.8765C50.3313 43.0375 50.1026 44.1871 49.6583 45.2598C49.214 46.3324 48.5628 47.3071 47.7418 48.128C46.9208 48.949 45.9462 49.6002 44.8736 50.0445C43.8009 50.4889 42.6513 50.7175 41.4902 50.7175H23.3817C21.0373 50.7169 18.7891 49.7852 17.1316 48.1272C15.4741 46.4693 14.5429 44.2209 14.5429 41.8765V23.768C14.5435 21.4236 15.4752 19.1754 17.1332 17.5178C18.7912 15.8603 21.0396 14.9291 23.384 14.9291H41.4925C43.8369 14.9297 46.0851 15.8615 47.7426 17.5194C49.4001 19.1774 50.3313 21.4258 50.3313 23.7702V41.8765Z" fill="#F35B3D"/>
<path d="M32.4367 21.2363C29.3657 21.2411 26.4219 22.4633 24.2506 24.635C22.0793 26.8067 20.8577 29.7507 20.8535 32.8217C20.8571 35.8935 22.0788 38.8384 24.2506 41.0107C26.4224 43.183 29.3672 44.4052 32.4389 44.4094C35.511 44.4058 38.4563 43.1838 40.6287 41.0115C42.801 38.8392 44.023 35.8939 44.0265 32.8217C44.0218 29.75 42.799 26.8055 40.6263 24.6341C38.4536 22.4626 35.5084 21.2415 32.4367 21.2386V21.2363ZM32.4367 39.9036C30.559 39.9036 28.7583 39.1577 27.4306 37.83C26.103 36.5023 25.3571 34.7016 25.3571 32.824C25.3571 30.9463 26.103 29.1456 27.4306 27.8179C28.7583 26.4903 30.559 25.7444 32.4367 25.7444C34.3143 25.7444 36.115 26.4903 37.4427 27.8179C38.7704 29.1456 39.5163 30.9463 39.5163 32.824C39.5163 34.7016 38.7704 36.5023 37.4427 37.83C36.115 39.1577 34.3143 39.9036 32.4367 39.9036Z" fill="#F35B3D"/>
<path d="M44.0472 24.1003C45.5802 24.1003 46.823 22.8576 46.823 21.3246C46.823 19.7916 45.5802 18.5488 44.0472 18.5488C42.5142 18.5488 41.2715 19.7916 41.2715 21.3246C41.2715 22.8576 42.5142 24.1003 44.0472 24.1003Z" fill="#F35B3D"/>
</svg>
