<svg width="24" height="25" viewBox="0 0 24 25" fill="none" xmlns="http://www.w3.org/2000/svg">
<g id="Icon">
<rect y="0.823242" width="24" height="24" rx="4.5" fill="white"/>
<g id="Group">
<path id="Vector" d="M15.3945 4.42334H8.60385C7.27697 4.4249 6.0049 4.95275 5.06674 5.89107C4.12858 6.82939 3.60095 8.10154 3.59961 9.42842L3.59961 16.2191C3.60117 17.546 4.12902 18.818 5.06734 19.7562C6.00566 20.6944 7.27781 21.222 8.60469 21.2233H15.3954C16.7222 21.2218 17.9943 20.6939 18.9325 19.7556C19.8706 18.8173 20.3983 17.5451 20.3996 16.2183V9.42758C20.398 8.1007 19.8702 6.82863 18.9319 5.89047C17.9936 4.95231 16.7214 4.42468 15.3945 4.42334ZM18.7099 16.2183C18.7099 16.6536 18.6242 17.0848 18.4576 17.487C18.2909 17.8893 18.0467 18.2547 17.7389 18.5626C17.431 18.8705 17.0655 19.1147 16.6633 19.2813C16.261 19.4479 15.8299 19.5337 15.3945 19.5337H8.60385C7.72469 19.5334 6.88162 19.184 6.26005 18.5623C5.63847 17.9406 5.28929 17.0974 5.28929 16.2183V9.42758C5.28951 8.54842 5.63891 7.70535 6.26064 7.08378C6.88238 6.4622 7.72553 6.11302 8.60469 6.11302H15.3954C16.2745 6.11324 17.1176 6.46264 17.7392 7.08437C18.3607 7.70611 18.7099 8.54926 18.7099 9.42842V16.2183Z" fill="#314B2A"/>
<path id="Vector_2" d="M11.9999 8.47803C10.8483 8.47981 9.74439 8.93813 8.93015 9.75253C8.11592 10.5669 7.65781 11.6709 7.65625 12.8226C7.65759 13.9745 8.11571 15.0788 8.93016 15.8934C9.7446 16.708 10.8489 17.1664 12.0008 17.1679C13.1528 17.1666 14.2573 16.7083 15.0719 15.8937C15.8866 15.0791 16.3448 13.9746 16.3461 12.8226C16.3444 11.6706 15.8858 10.5665 15.071 9.75218C14.2563 8.9379 13.1518 8.47998 11.9999 8.47887V8.47803ZM11.9999 15.4782C11.2958 15.4782 10.6206 15.1985 10.1227 14.7007C9.62479 14.2028 9.34509 13.5275 9.34509 12.8234C9.34509 12.1193 9.62479 11.444 10.1227 10.9461C10.6206 10.4483 11.2958 10.1685 11.9999 10.1685C12.704 10.1685 13.3793 10.4483 13.8772 10.9461C14.3751 11.444 14.6548 12.1193 14.6548 12.8234C14.6548 13.5275 14.3751 14.2028 13.8772 14.7007C13.3793 15.1985 12.704 15.4782 11.9999 15.4782Z" fill="#314B2A"/>
<path id="Vector_3" d="M16.3534 9.55202C16.9283 9.55202 17.3943 9.08599 17.3943 8.51112C17.3943 7.93624 16.9283 7.47021 16.3534 7.47021C15.7785 7.47021 15.3125 7.93624 15.3125 8.51112C15.3125 9.08599 15.7785 9.55202 16.3534 9.55202Z" fill="#314B2A"/>
</g>
</g>
</svg>
