<svg width="73" height="72" viewBox="0 0 73 72" fill="none" xmlns="http://www.w3.org/2000/svg">
<g filter="url(#filter0_d_5633_6669)">
<rect x="4.03125" y="0.00439453" width="64" height="64" rx="16" fill="#FCD8D0"/>
<rect x="4.53125" y="0.504395" width="63" height="63" rx="15.5" stroke="#E2E6ED"/>
<path d="M45.084 9.60425H26.9755C23.4372 9.60841 20.045 11.016 17.5432 13.5182C15.0414 16.0204 13.6344 19.4128 13.6309 22.9511L13.6309 41.0596C13.635 44.5979 15.0426 47.9901 17.5448 50.4919C20.047 52.9937 23.4394 54.4007 26.9777 54.4042H45.0862C48.6246 54.4001 52.0167 52.9925 54.5185 50.4903C57.0203 47.9881 58.4273 44.5957 58.4309 41.0574V22.9489C58.4267 19.4106 57.0191 16.0184 54.5169 13.5166C52.0147 11.0148 48.6223 9.60781 45.084 9.60425ZM53.9251 41.0574C53.9251 42.2184 53.6964 43.3681 53.2521 44.4407C52.8078 45.5133 52.1565 46.488 51.3356 47.309C50.5146 48.1299 49.54 48.7812 48.4673 49.2255C47.3947 49.6698 46.245 49.8984 45.084 49.8984H26.9755C24.6311 49.8978 22.3829 48.9661 20.7254 47.3082C19.0678 45.6502 18.1367 43.4018 18.1367 41.0574V22.9489C18.1373 20.6045 19.069 18.3563 20.7269 16.6987C22.3849 15.0412 24.6333 14.1101 26.9777 14.1101H45.0862C47.4306 14.1106 49.6788 15.0424 51.3364 16.7003C52.9939 18.3583 53.9251 20.6067 53.9251 22.9511V41.0574Z" fill="#F35B3D"/>
<path d="M36.0304 20.4175C32.9594 20.4222 30.0156 21.6444 27.8443 23.8161C25.673 25.9879 24.4514 28.9319 24.4473 32.0029C24.4508 35.0746 25.6725 38.0196 27.8443 40.1918C30.0162 42.3641 32.9609 43.5864 36.0327 43.5905C39.1048 43.5869 42.0501 42.365 44.2224 40.1926C46.3948 38.0203 47.6167 35.075 47.6203 32.0029C47.6155 28.9311 46.3927 25.9866 44.22 23.8152C42.0474 21.6438 39.1022 20.4227 36.0304 20.4197V20.4175ZM36.0304 39.0847C34.1528 39.0847 32.3521 38.3388 31.0244 37.0111C29.6967 35.6835 28.9508 33.8827 28.9508 32.0051C28.9508 30.1275 29.6967 28.3268 31.0244 26.9991C32.3521 25.6714 34.1528 24.9255 36.0304 24.9255C37.908 24.9255 39.7088 25.6714 41.0364 26.9991C42.3641 28.3268 43.11 30.1275 43.11 32.0051C43.11 33.8827 42.3641 35.6835 41.0364 37.0111C39.7088 38.3388 37.908 39.0847 36.0304 39.0847Z" fill="#F35B3D"/>
<path d="M47.641 23.2812C49.174 23.2812 50.4167 22.0385 50.4167 20.5055C50.4167 18.9725 49.174 17.7297 47.641 17.7297C46.108 17.7297 44.8652 18.9725 44.8652 20.5055C44.8652 22.0385 46.108 23.2812 47.641 23.2812Z" fill="#F35B3D"/>
</g>
<defs>
<filter id="filter0_d_5633_6669" x="0.03125" y="0.00439453" width="72" height="72" filterUnits="userSpaceOnUse" color-interpolation-filters="sRGB">
<feFlood flood-opacity="0" result="BackgroundImageFix"/>
<feColorMatrix in="SourceAlpha" type="matrix" values="0 0 0 0 0 0 0 0 0 0 0 0 0 0 0 0 0 0 127 0" result="hardAlpha"/>
<feOffset dy="4"/>
<feGaussianBlur stdDeviation="2"/>
<feComposite in2="hardAlpha" operator="out"/>
<feColorMatrix type="matrix" values="0 0 0 0 0 0 0 0 0 0 0 0 0 0 0 0 0 0 0.25 0"/>
<feBlend mode="normal" in2="BackgroundImageFix" result="effect1_dropShadow_5633_6669"/>
<feBlend mode="normal" in="SourceGraphic" in2="effect1_dropShadow_5633_6669" result="shape"/>
</filter>
</defs>
</svg>
