<svg width="34" height="40" viewBox="0 0 34 40" fill="none" xmlns="http://www.w3.org/2000/svg">
<path d="M33.75 19.9283C33.7512 20.4376 33.6207 20.9386 33.3709 21.3824C33.1212 21.8263 32.7609 22.198 32.325 22.4614L5.31 38.9877C4.85454 39.2666 4.33288 39.4188 3.7989 39.4287C3.26492 39.4386 2.73798 39.3058 2.2725 39.0439C1.81146 38.7861 1.42739 38.4102 1.15981 37.9548C0.892221 37.4994 0.75077 36.9809 0.75 36.4527V3.40393C0.75077 2.87571 0.892221 2.35724 1.15981 1.90181C1.42739 1.44639 1.81146 1.07046 2.2725 0.812679C2.73798 0.550833 3.26492 0.417994 3.7989 0.427883C4.33288 0.437771 4.85454 0.590028 5.31 0.868929L32.325 17.3952C32.7609 17.6586 33.1212 18.0303 33.3709 18.4742C33.6207 18.918 33.7512 19.419 33.75 19.9283Z" fill="white"/>
</svg>
