<svg width="25" height="25" viewBox="0 0 25 25" fill="none" xmlns="http://www.w3.org/2000/svg">
<g id="Base Icon Phosphor">
<path id="Vector" d="M21.4102 12.4695C21.4102 12.6684 21.3311 12.8592 21.1905 12.9998C21.0498 13.1405 20.8591 13.2195 20.6602 13.2195H13.1602V20.7195C13.1602 20.9184 13.0811 21.1092 12.9405 21.2498C12.7998 21.3905 12.6091 21.4695 12.4102 21.4695C12.2112 21.4695 12.0205 21.3905 11.8798 21.2498C11.7392 21.1092 11.6602 20.9184 11.6602 20.7195V13.2195H4.16016C3.96124 13.2195 3.77048 13.1405 3.62983 12.9998C3.48917 12.8592 3.41016 12.6684 3.41016 12.4695C3.41016 12.2706 3.48917 12.0798 3.62983 11.9392C3.77048 11.7985 3.96124 11.7195 4.16016 11.7195H11.6602V4.21948C11.6602 4.02057 11.7392 3.8298 11.8798 3.68915C12.0205 3.5485 12.2112 3.46948 12.4102 3.46948C12.6091 3.46948 12.7998 3.5485 12.9405 3.68915C13.0811 3.8298 13.1602 4.02057 13.1602 4.21948V11.7195H20.6602C20.8591 11.7195 21.0498 11.7985 21.1905 11.9392C21.3311 12.0798 21.4102 12.2706 21.4102 12.4695Z" fill="#3D4460"/>
</g>
</svg>
