<svg width="336" height="201" viewBox="0 0 336 201" fill="none" xmlns="http://www.w3.org/2000/svg">
<path d="M548.552 158.118C548.552 153.346 546.543 150.896 541.624 151.231C533 151.818 524.334 152.383 515.731 152.99C493.229 154.581 470.622 154.371 448.036 155.878C422.038 157.616 395.852 157.365 369.792 159.311C367.175 159.5 364.412 160.044 361.251 158.453C363.093 157.218 364.287 156.213 365.647 155.522C383.67 146.208 401.734 136.998 419.736 127.641C444.206 114.893 468.592 102.02 493.04 89.2513C502.125 84.4996 511.272 79.8946 520.336 75.122C523.999 73.1963 527.013 71.0403 523.162 66.4142C521.529 64.4466 520.587 61.9138 519.289 59.6532C512.612 48.0777 505.872 36.5231 499.299 24.8848C496.913 20.6356 494.401 20.0495 490.194 22.7916C479.434 29.8458 468.382 36.4185 457.539 43.3261C421.222 66.4352 384.968 89.6699 348.567 112.695C345.427 114.684 342.706 118.033 337.535 117.97C342.978 109.555 348.085 101.748 353.088 93.8982C370.399 66.6445 387.668 39.3699 405 12.1371C414.775 -3.248 424.508 -18.6541 434.514 -33.8927C437.089 -37.807 436.23 -40.1723 432.588 -42.2655C418.417 -50.3872 404.204 -58.4461 390.117 -66.6725C386.517 -68.7866 384.13 -68.5773 382.1 -64.642C373.978 -48.7545 365.752 -32.9298 357.505 -17.1051C347.583 1.96411 337.598 20.9915 327.613 40.0397C317.985 58.4182 308.335 76.7757 298.685 95.1332C298.392 95.0704 298.078 95.0076 297.785 94.9448C297.785 93.2493 297.722 91.5538 297.785 89.8583C298.329 78.6177 297.911 67.419 299.397 56.0947C302.432 33.174 300.402 9.96021 302.369 -13.1698C304.4 -36.8651 303.248 -60.8533 305.258 -84.6113C305.718 -89.9909 303.73 -91.3515 298.915 -91.3096C284.263 -91.184 269.631 -91.2678 254.979 -91.2678C244.848 -91.2678 245.078 -91.2678 244.827 -80.8854C244.199 -56.4994 246.669 -32.2809 247.904 -7.97866C248.176 -2.41071 248.008 3.17818 248.113 8.74613C248.532 34.8485 251.986 60.8463 251.19 86.9906C251.127 88.7698 251.734 90.6956 250.185 92.9353C244.136 84.0182 239.95 74.7243 235.177 65.7654C227.872 52.0548 221.299 37.9465 213.554 24.4871C208.802 16.2399 204.114 7.92979 200.095 -0.610542C189.922 -22.2753 178.137 -43.0819 167.503 -64.4955C165.347 -68.8285 162.814 -68.8913 159.151 -66.7353C145.504 -58.7601 131.772 -50.9315 118.124 -42.9354C112.703 -39.7746 112.347 -37.7233 115.759 -32.4274C126.246 -16.1003 136.775 0.226746 147.22 16.5748C165.159 44.6867 183.14 72.7567 200.827 101.015C203.883 105.892 208.07 110.246 209.514 116.149C207.065 117.342 205.684 115.793 204.114 114.788C185.086 102.669 166.059 90.57 147.032 78.4502C133.258 69.6797 119.485 60.9091 105.712 52.1595C89.5728 41.9236 73.4132 31.7087 57.2954 21.452C54.6161 19.7355 52.8997 19.6937 51.0786 22.9381C42.8104 37.5907 34.4375 52.2013 25.6879 66.5608C23.0504 70.8937 24.8715 72.987 28.0741 74.829C35.2957 78.9736 42.8523 82.4692 50.1994 86.3835C69.3105 96.5775 88.8612 105.976 107.972 116.17C129.553 127.662 151.218 139.007 172.988 150.122C177.781 152.571 183.014 154.518 187.41 158.474C184.772 160.065 182.512 159.248 180.356 159.269C171.292 159.374 162.375 157.678 153.374 157.009C132.923 155.481 112.431 157.071 91.8754 154.936C64.9357 152.111 37.682 153.932 10.6376 151.357C2.32758 150.562 0.611137 152.613 0.548341 161.195C0.464612 175.492 0.506476 189.788 0.548341 204.064C0.548341 211.097 1.8252 212.5 8.79561 212.249C26.5042 211.6 44.171 211.328 61.8796 209.8C84.6957 207.853 107.7 209.36 130.621 206.723C146.299 204.922 162.312 206.053 178.179 205.927C180.125 205.927 182.281 205.32 184.898 207.518C130.809 235.714 77.3275 263.595 23.9296 291.435C25.1227 297.673 28.6812 302.048 31.4233 306.82C37.7448 317.81 44.1291 328.757 50.4297 339.746C52.6485 343.619 55.4116 344.059 59.0747 341.651C66.1707 336.942 73.3504 332.357 80.5302 327.773C105 312.179 129.47 296.605 153.939 281.011C171.229 270 188.519 258.969 205.788 247.917C207.086 247.08 208.154 245.677 209.954 247.226C210.079 249.822 208.384 251.706 207.107 253.694C196.348 270.503 185.484 287.249 174.767 304.078C155.174 334.848 135.686 365.66 116.115 396.431C112.745 401.748 113.017 403.799 118.376 406.897C130.998 414.202 143.662 421.424 156.346 428.624C164.049 432.999 164.971 432.748 169.052 425.024C182.323 399.885 195.594 374.724 208.782 349.543C218.745 330.515 228.374 311.3 238.547 292.377C242.44 285.155 244.994 277.159 251.232 269.603C251.232 272.512 251.295 274.166 251.232 275.82C250.457 294.533 250.646 313.267 248.657 331.981C246.522 352.013 248.992 372.233 246.459 392.391C244.094 411.376 244.931 430.655 244.91 449.808C244.91 453.68 246.083 456.108 250.583 456.088C266.806 455.983 283.007 456.046 299.229 456.025C303.751 456.025 305.823 453.743 305.907 449.222C305.991 443.633 304.379 438.17 304.19 432.79C303.353 408.823 303.29 384.855 301.134 360.93C299.941 347.784 301.134 334.43 300.381 321.222C299.481 305.815 297.115 290.472 297.869 274.982C297.932 273.538 297.22 271.884 298.957 270.377C303.939 276.594 306.66 284.004 310.323 290.765C320.622 309.793 330.104 329.259 340.11 348.433C353.904 374.829 367.887 401.141 381.765 427.494C384.151 432.016 386.496 432.895 390.87 430.362C405.167 422.135 419.359 413.763 433.677 405.599C436.942 403.736 437.11 401.727 435.226 398.817C426.685 385.546 418.229 372.191 409.709 358.899C400.143 343.996 390.494 329.176 380.949 314.272C369.729 296.731 358.384 279.294 347.541 261.523C344.568 256.646 340.529 252.271 338.687 246.745C339.88 245.97 340.759 246.18 341.491 246.64C364.37 261.188 387.207 275.799 410.086 290.326C436.649 307.176 463.233 323.964 489.859 340.709C495.531 344.289 496.683 343.912 499.948 338.281C508.049 324.319 516.066 310.316 524.25 296.396C525.904 293.57 525.904 291.833 522.701 290.158C501.183 278.959 479.769 267.551 458.251 256.353C428.569 240.905 398.804 225.603 369.143 210.134C367.489 209.276 365.417 208.46 364.559 206.43C366.464 204.692 368.452 205.236 370.294 205.299C398.092 206.262 425.89 207.057 453.625 209.151C467.294 210.176 480.942 209.046 494.715 210.804C510.54 212.835 526.72 211.914 542.754 212.27C546.857 212.353 548.699 210.49 548.678 206.22C548.552 190.186 548.594 174.152 548.636 158.118H548.552Z" fill="#30858B"/>
</svg>
