<svg width="1440" height="160" viewBox="0 0 1440 160" fill="none" xmlns="http://www.w3.org/2000/svg">
<path d="M1397.53 4.24183L1432.48 7.95596C1439.6 8.71258 1445 14.7183 1445 21.8776V162.013H-5V27.4502C-5 19.7182 1.26794 13.4502 9 13.4502H9.59521C11.9392 13.4502 14.2456 14.0387 16.303 15.1617L17.9045 16.036C19.9619 17.159 22.262 17.7475 24.6058 17.7475H61.6143H97.9493H146.396C150.837 17.7475 161.172 16.888 166.986 13.4502C174.253 9.15293 193.026 17.7475 234.811 22.0448C253.003 23.9156 264.487 25.9925 271.372 27.761C276.982 29.2021 283.927 30.2741 289.426 28.4529C295.559 26.4218 301.987 23.9313 303.848 22.0448C307.481 18.3614 315.354 22.0448 321.41 17.7475C326.255 14.3097 329.484 13.4502 330.494 13.4502H353.506C371.673 13.4502 363.195 17.7475 370.462 22.0448C377.729 26.3421 379.546 22.0448 383.785 22.0448H393.282C394.217 22.0448 395.137 22.1399 396.056 22.3102C406.902 24.3211 430.635 26.7467 449.188 22.0448C465.955 17.7955 484.535 19.3675 494.731 21.1938C497.433 21.678 500.226 21.5559 502.762 20.5016C506.512 18.942 511.941 16.4976 517.619 13.4502C527.914 7.92514 528.52 13.4502 532.759 13.4502H551.532H569.164C570.324 13.4502 571.476 13.3031 572.605 13.0358C578.873 11.5512 590.336 9.31983 596.951 9.76683C606.034 10.3807 618.752 13.4502 650.242 13.4502C675.077 13.4502 727.847 17.0298 752.159 18.8958C752.861 18.9496 753.526 18.9507 754.227 18.8991C779.598 17.0341 829.178 13.4502 832.523 13.4502C836.762 13.4502 839.184 -0.0555308 910.038 4.85565C966.72 8.78459 1026.92 12.2224 1049.93 13.4502H1106.25C1122.6 13.4502 1157.12 12.6175 1164.38 9.28663C1171.65 5.95577 1226.76 10.6745 1253.4 13.4502C1264.3 13.4502 1289.13 12.6175 1301.25 9.28663C1316.38 5.12305 1306.7 9.28663 1309.12 4.24183C1310.27 1.83185 1312.64 1.70045 1314.88 2.34377C1317.62 3.13326 1320.34 4.24183 1323.19 4.24183H1336.97H1397.53Z" fill="#024B50" stroke="black" stroke-width="4"/>
</svg>
