<svg width="65" height="65" viewBox="0 0 65 65" fill="none" xmlns="http://www.w3.org/2000/svg">
<g id="Icon">
<rect x="0.9375" y="1.32324" width="63" height="63" rx="15.5" fill="#FEF1CE"/>
<rect x="0.9375" y="1.32324" width="63" height="63" rx="15.5" stroke="#E2E6ED"/>
<path id="Vector" d="M52.0365 28.7951C48.1833 28.8043 44.4246 27.6027 41.2914 25.3599V41.0018C41.2903 43.8989 40.4048 46.7266 38.7533 49.1068C37.1018 51.487 34.7629 53.3063 32.0495 54.3214C29.3361 55.3365 26.3775 55.499 23.5692 54.7873C20.761 54.0755 18.2369 52.5233 16.3346 50.3383C14.4323 48.1533 13.2425 45.4396 12.9241 42.5601C12.6057 39.6806 13.174 36.7725 14.553 34.2247C15.932 31.6769 18.056 29.6108 20.6409 28.3027C23.2258 26.9946 26.1485 26.5068 29.0181 26.9046V34.772C27.705 34.359 26.2949 34.3714 24.9893 34.8076C23.6836 35.2437 22.5492 36.0813 21.7479 37.2006C20.9467 38.32 20.5196 39.6639 20.5277 41.0404C20.5358 42.417 20.9787 43.7558 21.7931 44.8656C22.6074 45.9755 23.7517 46.7996 25.0624 47.2204C26.3731 47.6411 27.7832 47.6369 29.0914 47.2084C30.3996 46.78 31.5389 45.9491 32.3467 44.8344C33.1545 43.7198 33.5894 42.3784 33.5894 41.0018V10.4233H41.2914C41.2859 11.0738 41.3404 11.7233 41.4541 12.3637C41.7218 13.7934 42.2783 15.1534 43.0895 16.3606C43.9008 17.5678 44.9499 18.5968 46.1725 19.3847C47.9119 20.5349 49.9512 21.1479 52.0365 21.1474V28.7951Z" fill="#FCC431"/>
</g>
</svg>
