<svg width="24" height="25" viewBox="0 0 24 25" fill="none" xmlns="http://www.w3.org/2000/svg">
<g id="Icon">
<rect y="0.823242" width="24" height="24" rx="4.5" fill="white"/>
<path id="Vector" d="M19.3499 11.3128C17.9049 11.3162 16.4954 10.8656 15.3204 10.0245V15.8903C15.32 16.9767 14.988 18.0371 14.3687 18.9296C13.7493 19.8222 12.8723 20.5045 11.8548 20.8851C10.8372 21.2658 9.72774 21.3267 8.67464 21.0598C7.62155 20.7929 6.67503 20.2108 5.96167 19.3914C5.24831 18.5721 4.8021 17.5544 4.68271 16.4746C4.56332 15.3948 4.77643 14.3043 5.29356 13.3488C5.81068 12.3934 6.60717 11.6186 7.57652 11.1281C8.54587 10.6376 9.64187 10.4547 10.718 10.6038V13.5541C10.2255 13.3992 9.69677 13.4039 9.20715 13.5674C8.71753 13.731 8.29211 14.0451 7.99165 14.4648C7.69118 14.8846 7.53103 15.3885 7.53407 15.9048C7.53711 16.421 7.70319 16.923 8.00858 17.3392C8.31397 17.7554 8.74306 18.0644 9.23457 18.2222C9.72608 18.38 10.2549 18.3784 10.7454 18.2178C11.236 18.0571 11.6633 17.7455 11.9662 17.3275C12.2691 16.9095 12.4322 16.4065 12.4322 15.8903V4.42334H15.3204C15.3184 4.66725 15.3388 4.91082 15.3815 5.15098C15.4819 5.6871 15.6905 6.19711 15.9948 6.64982C16.299 7.10252 16.6924 7.48841 17.1509 7.78386C17.8031 8.21516 18.5679 8.44504 19.3499 8.44487V11.3128Z" fill="#314B2A"/>
</g>
</svg>
