<svg width="65" height="65" viewBox="0 0 65 65" fill="none" xmlns="http://www.w3.org/2000/svg">
<g id="Icon">
<rect x="0.9375" y="1.32324" width="63" height="63" rx="15.5" fill="#FFD3D3"/>
<rect x="0.9375" y="1.32324" width="63" height="63" rx="15.5" stroke="#E2E6ED"/>
<path id="Vector" fill-rule="evenodd" clip-rule="evenodd" d="M32.4375 15.2231C34.3185 15.2231 36.2479 15.2715 38.1179 15.3507L40.3267 15.4563L42.4409 15.5817L44.4209 15.7159L46.2293 15.8567C48.1921 16.0061 50.0393 16.8433 51.4454 18.2209C52.8515 19.5984 53.7265 21.428 53.9161 23.3873L54.0041 24.3223L54.1691 26.3243C54.3231 28.3989 54.4375 30.6605 54.4375 32.8231C54.4375 34.9857 54.3231 37.2473 54.1691 39.3219L54.0041 41.3239L53.9161 42.2589C53.7264 44.2186 52.8512 46.0485 51.4446 47.4261C50.038 48.8037 48.1903 49.6407 46.2271 49.7895L44.4231 49.9281L42.4431 50.0645L40.3267 50.1899L38.1179 50.2955C36.2255 50.3775 34.3316 50.4201 32.4375 50.4231C30.5434 50.4201 28.6495 50.3775 26.7571 50.2955L24.5483 50.1899L22.4341 50.0645L20.4541 49.9281L18.6457 49.7895C16.6829 49.6402 14.8357 48.803 13.4296 47.4254C12.0235 46.0479 11.1485 44.2183 10.9589 42.2589L10.8709 41.3239L10.7059 39.3219C10.5383 37.1596 10.4488 34.9919 10.4375 32.8231C10.4375 30.6605 10.5519 28.3989 10.7059 26.3243L10.8709 24.3223L10.9589 23.3873C11.1484 21.4284 12.0231 19.5991 13.4288 18.2215C14.8345 16.844 16.6811 16.0066 18.6435 15.8567L20.4497 15.7159L22.4297 15.5817L24.5461 15.4563L26.7549 15.3507C28.648 15.2687 30.5426 15.2262 32.4375 15.2231ZM28.0375 27.4881V38.1581C28.0375 39.1745 29.1375 39.8081 30.0175 39.3021L39.2575 33.9671C39.4586 33.8514 39.6256 33.6847 39.7417 33.4839C39.8578 33.283 39.919 33.0551 39.919 32.8231C39.919 32.5911 39.8578 32.3633 39.7417 32.1624C39.6256 31.9616 39.4586 31.7949 39.2575 31.6791L30.0175 26.3463C29.8168 26.2305 29.5891 26.1695 29.3573 26.1695C29.1255 26.1695 28.8978 26.2306 28.6971 26.3466C28.4964 26.4625 28.3298 26.6293 28.214 26.83C28.0982 27.0308 28.0374 27.2586 28.0375 27.4903V27.4881Z" fill="#FF4949"/>
</g>
</svg>
