<svg width="470" height="181" viewBox="0 0 470 181" fill="none" xmlns="http://www.w3.org/2000/svg">
<path d="M328.59 146.321V117.259L401.459 2.4574H426.516V42.6847H411.686L365.749 115.384V116.747H469.3V146.321H328.59ZM412.368 177.003V137.457L413.05 124.588V2.4574H447.652V177.003H412.368Z" fill="white"/>
<path d="M234.437 180.838C219.778 180.781 207.164 177.173 196.596 170.014C186.085 162.855 177.988 152.486 172.306 138.906C166.681 125.327 163.897 108.992 163.954 89.9006C163.954 70.8665 166.766 54.6449 172.391 41.2358C178.073 27.8267 186.17 17.6279 196.681 10.6392C207.249 3.59378 219.835 0.0710449 234.437 0.0710449C249.039 0.0710449 261.596 3.59378 272.107 10.6392C282.676 17.6847 290.801 27.912 296.482 41.321C302.164 54.6733 304.977 70.8665 304.92 89.9006C304.92 109.048 302.079 125.412 296.397 138.992C290.772 152.571 282.704 162.94 272.193 170.099C261.681 177.259 249.096 180.838 234.437 180.838ZM234.437 150.242C244.437 150.242 252.42 145.213 258.386 135.156C264.352 125.099 267.306 110.014 267.249 89.9006C267.249 76.662 265.886 65.6392 263.159 56.8324C260.488 48.0256 256.681 41.4063 251.738 36.9744C246.852 32.5426 241.085 30.3267 234.437 30.3267C224.494 30.3267 216.539 35.2983 210.573 45.2415C204.607 55.1847 201.596 70.071 201.539 89.9006C201.539 103.31 202.874 114.503 205.545 123.48C208.272 132.401 212.107 139.105 217.051 143.594C221.994 148.026 227.789 150.242 234.437 150.242Z" fill="white"/>
<path d="M0.699219 146.321V117.259L73.5685 2.4574H98.6254V42.6847H83.7958L37.8583 115.384V116.747H141.409V146.321H0.699219ZM84.4776 177.003V137.457L85.1594 124.588V2.4574H119.762V177.003H84.4776Z" fill="white"/>
</svg>
