<svg width="193" height="141" viewBox="0 0 193 141" fill="none" xmlns="http://www.w3.org/2000/svg">
<g clip-path="url(#clip0_7205_10310)">
<path d="M193.418 161.759C193.418 158.669 192.117 157.083 188.931 157.299C183.346 157.679 177.734 158.045 172.163 158.438C157.591 159.468 142.951 159.333 128.324 160.309C111.488 161.434 94.5302 161.271 77.6535 162.532C75.9591 162.654 74.1697 163.006 72.1228 161.976C73.3157 161.176 74.0884 160.526 74.9695 160.078C86.6408 154.046 98.3393 148.082 109.997 142.022C125.844 133.767 141.636 125.43 157.469 117.161C163.352 114.084 169.276 111.102 175.145 108.011C177.517 106.764 179.469 105.368 176.975 102.372C175.918 101.098 175.308 99.4578 174.467 97.9938C170.143 90.4976 165.778 83.0149 161.522 75.478C159.976 72.7262 158.35 72.3467 155.625 74.1225C148.658 78.6907 141.5 82.9471 134.478 87.4205C110.96 102.386 87.4813 117.433 63.9082 132.344C61.8748 133.631 60.1126 135.8 56.7644 135.76C60.2888 130.31 63.5964 125.254 66.8362 120.171C78.0466 102.521 89.2299 84.8585 100.454 67.2227C106.784 57.2593 113.088 47.2825 119.567 37.414C121.235 34.8791 120.679 33.3473 118.32 31.9918C109.143 26.7322 99.9388 21.5133 90.8159 16.186C88.4844 14.8169 86.9391 14.9524 85.6242 17.5009C80.3646 27.7895 75.0373 38.0376 69.6964 48.2856C63.271 60.6347 56.805 72.9567 50.339 85.2923C44.1035 97.194 37.8544 109.082 31.6052 120.971C31.4155 120.93 31.2121 120.889 31.0223 120.849C31.0223 119.751 30.9817 118.653 31.0223 117.555C31.3748 110.275 31.1037 103.023 32.0661 95.6894C34.0317 80.846 32.7168 65.8129 33.991 50.834C35.3059 35.4891 34.5603 19.9544 35.8617 4.56885C36.1599 1.08507 34.8721 0.203959 31.7543 0.23107C22.2655 0.312404 12.7901 0.258181 3.30121 0.258181C-3.25969 0.258181 -3.11057 0.258181 -3.27324 6.98174C-3.6799 22.774 -2.08035 38.4578 -1.28056 54.1958C-1.10434 57.8016 -1.21278 61.4209 -1.14502 65.0267C-0.873901 81.9305 1.36276 98.7665 0.847656 115.697C0.806992 116.85 1.2001 118.097 0.196991 119.547C-3.72058 113.773 -6.43169 107.754 -9.52235 101.952C-14.2533 93.0732 -18.5097 83.9367 -23.5253 75.2205C-26.6024 69.8796 -29.6388 64.498 -32.2415 58.9674C-38.8295 44.9373 -46.4613 31.4631 -53.3475 17.5958C-54.7437 14.7898 -56.384 14.7491 -58.7562 16.1453C-67.5944 21.31 -76.4869 26.3798 -85.3251 31.558C-88.836 33.6049 -89.0664 34.9333 -86.8569 38.3629C-80.0656 48.9362 -73.2471 59.5096 -66.4829 70.0965C-54.8657 88.3016 -43.2215 106.48 -31.767 124.78C-29.7879 127.938 -27.0768 130.758 -26.1415 134.58C-27.7275 135.353 -28.6222 134.35 -29.6388 133.699C-41.9608 125.851 -54.2828 118.015 -66.6049 110.167C-75.5244 104.487 -84.444 98.8072 -93.3636 93.1409C-103.815 86.5123 -114.28 79.8971 -124.718 73.2549C-126.453 72.1434 -127.564 72.1162 -128.744 74.2174C-134.098 83.7063 -139.52 93.168 -145.187 102.467C-146.895 105.273 -145.715 106.629 -143.641 107.822C-138.964 110.506 -134.071 112.769 -129.313 115.304C-116.937 121.906 -104.276 127.992 -91.8996 134.594C-77.9238 142.036 -63.8937 149.383 -49.796 156.581C-46.6917 158.167 -43.3028 159.428 -40.4562 161.99C-42.1642 163.02 -43.6282 162.491 -45.0244 162.505C-50.894 162.573 -56.6686 161.475 -62.4975 161.041C-75.7413 160.051 -89.0122 161.081 -102.324 159.699C-119.77 157.869 -137.419 159.048 -154.933 157.381C-160.315 156.866 -161.426 158.194 -161.467 163.752C-161.521 173.01 -161.494 182.269 -161.467 191.514C-161.467 196.068 -160.64 196.977 -156.126 196.814C-144.658 196.394 -133.217 196.217 -121.749 195.228C-106.973 193.967 -92.0758 194.943 -77.2324 193.235C-67.0793 192.069 -56.7093 192.801 -46.4342 192.72C-45.1735 192.72 -43.7773 192.327 -42.0828 193.75C-77.1104 212.01 -111.745 230.066 -146.325 248.095C-145.553 252.134 -143.248 254.967 -141.472 258.058C-137.378 265.175 -133.244 272.264 -129.164 279.381C-127.727 281.889 -125.938 282.173 -123.565 280.614C-118.97 277.564 -114.32 274.596 -109.671 271.627C-93.8244 261.528 -77.978 251.443 -62.1315 241.344C-50.9346 234.214 -39.7377 227.07 -28.5544 219.913C-27.7139 219.37 -27.0226 218.462 -25.8568 219.465C-25.7755 221.146 -26.8735 222.366 -27.7004 223.654C-34.6679 234.539 -41.7033 245.384 -48.6437 256.282C-61.3317 276.209 -73.952 296.163 -86.6264 316.089C-88.8089 319.532 -88.6327 320.861 -85.1624 322.867C-76.9884 327.598 -68.7873 332.275 -60.5726 336.938C-55.5842 339.771 -54.9877 339.608 -52.3444 334.606C-43.7502 318.326 -35.1559 302.032 -26.6159 285.725C-20.1635 273.403 -13.9279 260.959 -7.3399 248.705C-4.81857 244.028 -3.16479 238.85 0.874771 233.956C0.874771 235.84 0.915436 236.911 0.874771 237.982C0.373215 250.101 0.495209 262.233 -0.792572 274.352C-2.17525 287.324 -0.575684 300.419 -2.21591 313.473C-3.74768 325.768 -3.20546 338.253 -3.21901 350.656C-3.21901 353.164 -2.4599 354.736 0.454544 354.723C10.9601 354.655 21.4521 354.696 31.9577 354.682C34.8857 354.682 36.2277 353.205 36.2819 350.277C36.3361 346.657 35.2923 343.119 35.1703 339.635C34.6281 324.114 34.5875 308.593 33.1912 293.099C32.4186 284.586 33.1912 275.938 32.7032 267.384C32.1203 257.407 30.5886 247.471 31.0766 237.44C31.1172 236.505 30.6563 235.434 31.7814 234.458C35.0077 238.484 36.7699 243.282 39.1421 247.661C45.8115 259.983 51.9521 272.59 58.4317 285.006C67.3648 302.1 76.4199 319.139 85.4073 336.206C86.9526 339.134 88.4708 339.703 91.304 338.063C100.562 332.736 109.753 327.313 119.025 322.027C121.14 320.82 121.248 319.519 120.028 317.635C114.498 309.04 109.021 300.392 103.504 291.784C97.3091 282.133 91.06 272.535 84.8786 262.884C77.6128 251.524 70.2657 240.232 63.2439 228.724C61.319 225.565 58.7028 222.732 57.5099 219.154C58.2826 218.652 58.8519 218.787 59.3264 219.086C74.1426 228.507 88.9317 237.969 103.748 247.376C120.95 258.288 138.166 269.16 155.408 280.004C159.082 282.322 159.827 282.078 161.942 278.432C167.188 269.39 172.38 260.322 177.68 251.307C178.751 249.477 178.751 248.352 176.677 247.268C162.742 240.016 148.874 232.628 134.939 225.376C115.718 215.371 96.4415 205.462 77.2333 195.445C76.1624 194.889 74.8204 194.36 74.2646 193.045C75.4982 191.92 76.7859 192.273 77.9788 192.313C95.9806 192.937 113.982 193.452 131.944 194.808C140.795 195.472 149.634 194.74 158.553 195.879C168.801 197.193 179.28 196.597 189.663 196.827C192.32 196.882 193.513 195.675 193.499 192.91C193.418 182.526 193.445 172.143 193.472 161.759H193.418Z" fill="#FDDA7D"/>
</g>
<defs>
<clipPath id="clip0_7205_10310">
<rect width="193" height="141" fill="white"/>
</clipPath>
</defs>
</svg>
