<svg width="407" height="407" viewBox="0 0 407 407" fill="none" xmlns="http://www.w3.org/2000/svg">
<path d="M406.249 185.52C406.249 181.987 404.761 180.174 401.119 180.422C394.735 180.856 388.319 181.274 381.95 181.723C365.291 182.901 348.555 182.746 331.834 183.862C312.587 185.148 293.201 184.962 273.908 186.403C271.971 186.543 269.925 186.946 267.585 185.768C268.949 184.854 269.832 184.11 270.839 183.599C284.182 176.703 297.555 169.884 310.883 162.957C328.998 153.52 347.052 143.989 365.152 134.536C371.877 131.019 378.649 127.609 385.359 124.076C388.071 122.65 390.303 121.054 387.451 117.629C386.243 116.173 385.545 114.298 384.584 112.624C379.641 104.054 374.651 95.5003 369.785 86.8842C368.019 83.7384 366.159 83.3045 363.044 85.3345C355.079 90.5569 346.897 95.4228 338.869 100.537C311.983 117.645 285.143 134.846 258.194 151.892C255.87 153.365 253.855 155.844 250.027 155.798C254.056 149.568 257.838 143.788 261.541 137.977C274.357 117.8 287.142 97.6078 299.973 77.4467C307.21 66.0567 314.416 54.6512 321.823 43.3697C323.729 40.4718 323.094 38.7207 320.397 37.1711C309.906 31.1584 299.384 25.1922 288.955 19.102C286.289 17.5369 284.523 17.6918 283.02 20.6052C277.007 32.3671 270.917 44.0825 264.811 55.798C257.466 69.9154 250.074 84.0018 242.682 98.1037C235.554 111.71 228.41 125.3 221.266 138.891C221.049 138.844 220.816 138.798 220.599 138.751C220.599 137.496 220.553 136.241 220.599 134.986C221.002 126.664 220.692 118.373 221.793 109.99C224.04 93.0208 222.536 75.8351 223.993 58.7113C225.496 41.1692 224.644 23.4101 226.132 5.82142C226.473 1.83879 225 0.831511 221.436 0.862504C210.589 0.955484 199.756 0.893497 188.909 0.893497C181.408 0.893497 181.579 0.893497 181.393 8.57981C180.928 26.6334 182.757 44.5629 183.671 62.5545C183.872 66.6766 183.748 70.8142 183.826 74.9363C184.136 94.2606 186.693 113.507 186.104 132.863C186.057 134.18 186.507 135.606 185.36 137.264C180.882 130.662 177.782 123.782 174.249 117.149C168.841 106.999 163.975 96.5541 158.241 86.5897C154.723 80.4841 151.252 74.3319 148.277 68.0093C140.745 51.9703 132.021 36.5667 124.148 20.7137C122.552 17.5059 120.677 17.4594 117.965 19.0555C107.862 24.9597 97.6957 30.7555 87.5919 36.6752C83.5783 39.0152 83.3149 40.5338 85.8408 44.4545C93.6046 56.5418 101.399 68.6292 109.132 80.732C122.413 101.544 135.724 122.325 148.819 143.245C151.082 146.856 154.181 150.079 155.25 154.449C153.437 155.333 152.414 154.186 151.252 153.442C137.166 144.47 123.079 135.513 108.993 126.54C98.796 120.047 88.5992 113.554 78.4025 107.076C66.4546 99.4984 54.4912 91.9361 42.5588 84.3427C40.5752 83.072 39.3045 83.041 37.9563 85.443C31.8352 96.2906 25.6365 107.107 19.1589 117.738C17.2064 120.946 18.5546 122.495 20.9255 123.859C26.2719 126.927 31.8662 129.515 37.3055 132.413C51.4539 139.96 65.9277 146.918 80.0761 154.465C96.0531 162.973 112.092 171.372 128.209 179.6C131.757 181.413 135.631 182.855 138.886 185.784C136.933 186.961 135.26 186.357 133.663 186.372C126.953 186.45 120.352 185.195 113.688 184.699C98.548 183.568 83.3769 184.745 68.1592 183.165C48.2151 181.073 28.0385 182.421 8.01687 180.515C1.86472 179.926 0.593996 181.444 0.547507 187.798C0.48552 198.382 0.516513 208.966 0.547507 219.535C0.547507 224.742 1.4928 225.78 6.65317 225.594C19.7633 225.114 32.8424 224.912 45.9526 223.781C62.8439 222.34 79.8746 223.456 96.8434 221.503C108.45 220.171 120.305 221.007 132.052 220.914C133.493 220.914 135.089 220.465 137.026 222.092C96.9829 242.966 57.3891 263.608 17.8572 284.218C18.7405 288.836 21.3749 292.075 23.405 295.608C28.085 303.744 32.8114 311.848 37.4759 319.984C39.1186 322.851 41.1641 323.176 43.876 321.394C49.1294 317.908 54.4447 314.514 59.76 311.12C77.8756 299.575 95.9911 288.046 114.107 276.501C126.907 268.349 139.707 260.183 152.492 252.001C153.453 251.381 154.243 250.342 155.576 251.489C155.669 253.411 154.413 254.805 153.468 256.278C145.503 268.721 137.46 281.119 129.526 293.578C115.021 316.358 100.594 339.169 86.1043 361.949C83.6093 365.885 83.8108 367.404 87.7779 369.697C97.1224 375.106 106.498 380.452 115.889 385.783C121.592 389.022 122.273 388.836 125.295 383.117C135.12 364.506 144.945 345.879 154.708 327.237C162.084 313.15 169.213 298.924 176.744 284.915C179.626 279.569 181.517 273.649 186.135 268.055C186.135 270.209 186.181 271.433 186.135 272.658C185.561 286.512 185.701 300.381 184.229 314.235C182.648 329.065 184.477 344.035 182.602 358.958C180.851 373.014 181.47 387.286 181.455 401.465C181.455 404.332 182.323 406.13 185.654 406.114C197.664 406.037 209.659 406.083 221.669 406.068C225.016 406.068 226.55 404.379 226.612 401.031C226.674 396.894 225.481 392.849 225.341 388.867C224.721 371.123 224.675 353.379 223.079 335.667C222.195 325.935 223.079 316.048 222.521 306.27C221.855 294.864 220.103 283.505 220.661 272.038C220.708 270.968 220.181 269.744 221.467 268.628C225.155 273.231 227.17 278.717 229.882 283.722C237.506 297.809 244.526 312.22 251.933 326.415C262.146 345.956 272.497 365.436 282.772 384.946C284.538 388.293 286.274 388.944 289.513 387.069C300.097 380.979 310.604 374.78 321.203 368.737C323.621 367.357 323.745 365.87 322.35 363.716C316.027 353.891 309.767 344.004 303.46 334.164C296.378 323.13 289.234 312.158 282.167 301.125C273.861 288.139 265.462 275.23 257.435 262.073C255.234 258.463 252.243 255.224 250.88 251.133C251.763 250.559 252.414 250.714 252.956 251.055C269.894 261.825 286.801 272.642 303.739 283.397C323.404 295.871 343.085 308.3 362.796 320.697C366.996 323.347 367.848 323.068 370.266 318.899C376.263 308.563 382.198 298.196 388.257 287.891C389.481 285.799 389.481 284.512 387.11 283.273C371.18 274.982 355.327 266.536 339.396 258.246C317.422 246.809 295.386 235.481 273.427 224.029C272.203 223.394 270.669 222.789 270.034 221.286C271.444 220 272.916 220.403 274.28 220.449C294.859 221.162 315.439 221.751 335.972 223.301C346.091 224.06 356.195 223.223 366.391 224.525C378.107 226.028 390.086 225.346 401.956 225.61C404.993 225.672 406.357 224.293 406.342 221.131C406.249 209.261 406.28 197.391 406.311 185.52H406.249Z" fill="#FCC431"/>
</svg>
