<svg width="125" height="117" viewBox="0 0 125 117" fill="none" xmlns="http://www.w3.org/2000/svg">
<g clip-path="url(#clip0_5932_7672)">
<path d="M200.548 91.544C200.548 89.8003 199.813 88.9055 198.016 89.0279C194.865 89.242 191.699 89.4485 188.556 89.6703C180.334 90.2515 172.075 90.1751 163.823 90.7257C154.324 91.3605 144.756 91.2687 135.235 91.98C134.279 92.0488 133.269 92.2476 132.114 91.6664C132.787 91.2152 133.223 90.8481 133.72 90.5957C140.305 87.1924 146.905 83.8273 153.483 80.4087C162.423 75.7512 171.333 71.0477 180.265 66.3825C183.585 64.6465 186.927 62.9639 190.238 61.2202C191.577 60.5166 192.678 59.7289 191.271 58.0387C190.674 57.3198 190.33 56.3944 189.856 55.5684C187.416 51.3392 184.954 47.1175 182.552 42.8653C181.68 41.3128 180.763 41.0987 179.225 42.1005C175.294 44.6779 171.256 47.0793 167.295 49.6031C154.026 58.0463 140.779 66.5355 127.48 74.9481C126.333 75.6747 125.338 76.8984 123.449 76.8754C125.438 73.801 127.304 70.9483 129.132 68.0804C135.457 58.1228 141.766 48.1576 148.098 38.2078C151.67 32.5866 155.226 26.9577 158.882 21.3901C159.823 19.9599 159.509 19.0957 158.178 18.3309C153.001 15.3636 147.808 12.4191 142.661 9.41351C141.345 8.64107 140.474 8.71755 139.732 10.1554C136.764 15.9601 133.759 21.7419 130.745 27.5237C127.12 34.4909 123.472 41.4428 119.824 48.4024C116.306 55.1172 112.781 61.8244 109.255 68.5316C109.148 68.5086 109.033 68.4857 108.926 68.4628C108.926 67.8433 108.903 67.2238 108.926 66.6043C109.125 62.4974 108.972 58.4058 109.515 54.2683C110.624 45.8939 109.882 37.4124 110.601 28.9615C111.343 20.3041 110.922 11.5396 111.656 2.85928C111.825 0.893777 111.098 0.396665 109.339 0.41196C103.986 0.457848 98.6397 0.427256 93.2862 0.427256C89.5846 0.427256 89.6687 0.427256 89.577 4.2206C89.3475 13.1304 90.25 21.979 90.7012 30.8582C90.8006 32.8925 90.7394 34.9345 90.7777 36.9688C90.9306 46.5057 92.1925 56.0044 91.9019 65.5566C91.879 66.2066 92.1008 66.9102 91.5348 67.7286C89.3246 64.4706 87.795 61.0749 86.0513 57.8016C83.3822 52.7923 80.9807 47.6376 78.151 42.72C76.415 39.7067 74.7018 36.6705 73.2334 33.5502C69.5166 25.6347 65.2108 18.0327 61.3257 10.2089C60.538 8.62578 59.6126 8.60283 58.2742 9.39057C53.2878 12.3044 48.2708 15.1647 43.2844 18.0862C41.3036 19.241 41.1736 19.9905 42.4202 21.9254C46.2517 27.8908 50.0986 33.8561 53.9149 39.8291C60.4691 50.1002 67.0387 60.356 73.5011 70.6806C74.6177 72.4626 76.1473 74.0533 76.675 76.21C75.7802 76.646 75.2754 76.08 74.7018 75.7129C67.7499 71.2848 60.798 66.8643 53.8461 62.4362C48.8138 59.2318 43.7815 56.0273 38.7492 52.8305C32.8527 49.0907 26.9485 45.3585 21.0596 41.6111C20.0807 40.9839 19.4536 40.9686 18.7882 42.1541C15.7673 47.5076 12.7082 52.8458 9.51135 58.0922C8.54772 59.6753 9.21309 60.4401 10.3832 61.1131C13.0217 62.6274 15.7826 63.9046 18.467 65.3348C25.4495 69.0593 32.5926 72.4932 39.5751 76.2177C47.4601 80.4164 55.3757 84.5615 63.3295 88.6225C65.0808 89.5173 66.9928 90.2286 68.5988 91.6741C67.6352 92.2553 66.8092 91.957 66.0215 91.9647C62.71 92.0029 59.452 91.3834 56.1634 91.1387C48.6914 90.5804 41.2041 91.1616 33.6939 90.3816C23.8511 89.3491 13.8936 90.0145 4.01253 89.0738C0.976325 88.7832 0.349199 89.5326 0.326256 92.6683C0.295664 97.8918 0.31096 103.115 0.326256 108.331C0.326256 110.901 0.792776 111.413 3.33952 111.321C9.80962 111.084 16.2644 110.985 22.7345 110.427C31.0707 109.715 39.4757 110.266 47.8502 109.302C53.5784 108.645 59.429 109.058 65.2261 109.012C65.9374 109.012 66.7251 108.79 67.6811 109.593C47.919 119.895 28.3787 130.082 8.86893 140.253C9.30486 142.532 10.605 144.131 11.6069 145.875C13.9165 149.89 16.2491 153.89 18.5511 157.905C19.3618 159.319 20.3713 159.48 21.7097 158.601C24.3023 156.88 26.9256 155.205 29.5488 153.53C38.4892 147.832 47.4295 142.142 56.3699 136.445C62.687 132.422 69.0042 128.391 75.3137 124.353C75.7878 124.048 76.1779 123.535 76.8356 124.101C76.8815 125.049 76.262 125.738 75.7955 126.464C71.8645 132.605 67.8952 138.724 63.9795 144.873C56.8211 156.115 49.7009 167.373 42.5502 178.615C41.3189 180.558 41.4183 181.307 43.3761 182.439C47.9878 185.108 52.6148 187.747 57.2494 190.378C60.0638 191.976 60.4003 191.884 61.8916 189.062C66.7404 179.877 71.5892 170.684 76.4073 161.484C80.0477 154.532 83.5657 147.511 87.2826 140.598C88.7051 137.959 89.6381 135.038 91.9172 132.277C91.9172 133.34 91.9402 133.944 91.9172 134.548C91.6342 141.385 91.7031 148.23 90.9765 155.067C90.1964 162.386 91.0989 169.774 90.1735 177.139C89.3093 184.076 89.6152 191.119 89.6076 198.117C89.6076 199.532 90.0358 200.419 91.6801 200.412C97.6072 200.373 103.527 200.396 109.454 200.389C111.106 200.389 111.863 199.555 111.893 197.903C111.924 195.861 111.335 193.865 111.266 191.899C110.96 183.143 110.937 174.386 110.15 165.644C109.714 160.841 110.15 155.962 109.874 151.136C109.546 145.507 108.681 139.902 108.957 134.242C108.98 133.714 108.72 133.11 109.354 132.56C111.175 134.831 112.169 137.538 113.507 140.009C117.27 146.961 120.734 154.073 124.39 161.079C129.43 170.722 134.539 180.336 139.609 189.965C140.481 191.616 141.338 191.938 142.936 191.012C148.16 188.007 153.345 184.948 158.576 181.965C159.769 181.284 159.83 180.55 159.142 179.487C156.022 174.638 152.932 169.759 149.819 164.902C146.324 159.457 142.799 154.042 139.311 148.597C135.212 142.188 131.067 135.818 127.105 129.325C126.019 127.543 124.543 125.944 123.87 123.925C124.306 123.642 124.627 123.719 124.895 123.887C133.254 129.202 141.598 134.54 149.957 139.848C159.662 146.005 169.375 152.138 179.103 158.256C181.176 159.564 181.596 159.427 182.789 157.369C185.749 152.268 188.678 147.152 191.668 142.066C192.273 141.033 192.273 140.399 191.102 139.787C183.24 135.695 175.417 131.527 167.555 127.436C156.71 121.791 145.835 116.201 134.998 110.549C134.393 110.235 133.636 109.937 133.323 109.195C134.019 108.561 134.745 108.759 135.418 108.782C145.575 109.134 155.731 109.425 165.865 110.19C170.859 110.564 175.845 110.151 180.877 110.794C186.659 111.536 192.571 111.199 198.429 111.329C199.928 111.36 200.601 110.679 200.594 109.119C200.548 103.261 200.563 97.4023 200.578 91.544H200.548Z" fill="#FCC431"/>
</g>
<defs>
<clipPath id="clip0_5932_7672">
<rect width="125" height="117" fill="white"/>
</clipPath>
</defs>
</svg>
