<svg width="251" height="406" viewBox="0 0 251 406" fill="none" xmlns="http://www.w3.org/2000/svg">
<path d="M406.671 185.367C406.671 181.834 405.183 180.021 401.541 180.269C395.157 180.702 388.741 181.121 382.372 181.57C365.713 182.748 348.977 182.593 332.256 183.709C313.009 184.995 293.623 184.809 274.33 186.25C272.392 186.39 270.347 186.793 268.007 185.615C269.371 184.701 270.254 183.957 271.261 183.445C284.604 176.549 297.977 169.731 311.304 162.804C329.42 153.366 347.474 143.836 365.574 134.383C372.299 130.865 379.071 127.456 385.781 123.923C388.493 122.497 390.725 120.901 387.873 117.476C386.664 116.02 385.967 114.144 385.006 112.471C380.063 103.901 375.073 95.3471 370.207 86.731C368.44 83.5852 366.581 83.1513 363.466 85.1813C355.501 90.4037 347.319 95.2696 339.291 100.383C312.405 117.492 285.565 134.693 258.616 151.739C256.291 153.211 254.277 155.691 250.449 155.644C254.478 149.415 258.26 143.635 261.963 137.823C274.779 117.647 287.564 97.4546 300.395 77.2935C307.632 65.9035 314.838 54.498 322.245 43.2165C324.151 40.3186 323.516 38.5675 320.819 37.0179C310.328 31.0052 299.806 25.039 289.377 18.9488C286.711 17.3837 284.945 17.5386 283.442 20.452C277.429 32.2139 271.339 43.9293 265.233 55.6448C257.888 69.7622 250.496 83.8486 243.104 97.9505C235.975 111.557 228.831 125.147 221.688 138.738C221.471 138.691 221.238 138.645 221.021 138.598C221.021 137.343 220.975 136.088 221.021 134.832C221.424 126.511 221.114 118.22 222.214 109.836C224.461 92.8676 222.958 75.6819 224.415 58.5581C225.918 41.016 225.066 23.2569 226.553 5.66822C226.894 1.68559 225.422 0.678313 221.858 0.709306C211.01 0.802285 200.178 0.740299 189.331 0.740299C181.83 0.740299 182.001 0.740299 181.815 8.42662C181.35 26.4802 183.178 44.4097 184.093 62.4013C184.294 66.5234 184.17 70.661 184.248 74.7831C184.558 94.1074 187.115 113.354 186.526 132.709C186.479 134.027 186.929 135.452 185.782 137.11C181.303 130.509 178.204 123.628 174.671 116.996C169.263 106.846 164.397 96.4009 158.663 86.4365C155.145 80.3309 151.674 74.1787 148.699 67.8561C141.167 51.8171 132.443 36.4135 124.57 20.5605C122.974 17.3527 121.099 17.3062 118.387 18.9023C108.283 24.8065 98.1176 30.6023 88.0138 36.522C84.0002 38.862 83.7368 40.3806 86.2627 44.3013C94.0265 56.3886 101.821 68.476 109.554 80.5788C122.835 101.391 136.146 122.172 149.241 143.092C151.503 146.703 154.603 149.926 155.672 154.296C153.859 155.18 152.836 154.033 151.674 153.289C137.587 144.316 123.501 135.359 109.415 126.387C99.2179 119.894 89.0211 113.401 78.8243 106.923C66.8764 99.3452 54.9131 91.7829 42.9807 84.1895C40.9971 82.9188 39.7264 82.8878 38.3782 85.2898C32.257 96.1374 26.0584 106.954 19.5808 117.585C17.6282 120.793 18.9764 122.342 21.3474 123.706C26.6937 126.774 32.288 129.362 37.7273 132.26C51.8757 139.807 66.3496 146.765 80.498 154.312C96.475 162.819 112.514 171.218 128.63 179.447C132.179 181.26 136.053 182.701 139.308 185.63C137.355 186.808 135.681 186.204 134.085 186.219C127.375 186.297 120.774 185.041 114.11 184.546C98.9699 183.414 83.7987 184.592 68.5811 183.011C48.6369 180.919 28.4604 182.268 8.43875 180.361C2.28659 179.773 1.01587 181.291 0.969382 187.645C0.907395 198.229 0.938388 208.813 0.969382 219.382C0.969382 224.589 1.91467 225.627 7.07504 225.441C20.1852 224.961 33.2643 224.759 46.3744 223.628C63.2657 222.187 80.2965 223.303 97.2653 221.35C108.872 220.017 120.727 220.854 132.474 220.761C133.915 220.761 135.511 220.312 137.448 221.939C97.4048 242.813 57.8109 263.454 18.2791 284.065C19.1624 288.683 21.7968 291.922 23.8269 295.455C28.5069 303.591 33.2333 311.695 37.8978 319.831C39.5404 322.698 41.586 323.023 44.2979 321.241C49.5512 317.754 54.8666 314.361 60.1819 310.967C78.2974 299.422 96.413 287.892 114.529 276.347C127.329 268.196 140.129 260.03 152.914 251.847C153.874 251.227 154.665 250.189 155.997 251.336C156.09 253.258 154.835 254.652 153.89 256.124C145.925 268.568 137.882 280.965 129.948 293.425C115.443 316.205 101.015 339.016 86.5261 361.796C84.0312 365.732 84.2326 367.251 88.1998 369.544C97.5442 374.952 106.92 380.299 116.311 385.63C122.013 388.868 122.695 388.682 125.717 382.964C135.542 364.353 145.367 345.726 155.13 327.083C162.506 312.997 169.634 298.771 177.166 284.762C180.048 279.416 181.939 273.496 186.557 267.902C186.557 270.056 186.603 271.28 186.557 272.504C185.983 286.358 186.123 300.228 184.651 314.082C183.07 328.912 184.899 343.882 183.024 358.805C181.272 372.86 181.892 387.133 181.877 401.312C181.877 404.179 182.745 405.977 186.076 405.961C198.086 405.884 210.081 405.93 222.09 405.915C225.438 405.915 226.972 404.226 227.034 400.878C227.096 396.741 225.903 392.696 225.763 388.713C225.143 370.97 225.097 353.226 223.501 335.514C222.617 325.782 223.501 315.895 222.943 306.116C222.276 294.711 220.525 283.352 221.083 271.884C221.13 270.815 220.603 269.591 221.889 268.475C225.577 273.078 227.592 278.564 230.304 283.569C237.928 297.655 244.948 312.067 252.355 326.262C262.568 345.803 272.919 365.283 283.194 384.793C284.96 388.14 286.696 388.791 289.935 386.916C300.519 380.826 311.025 374.627 321.625 368.583C324.043 367.204 324.167 365.716 322.772 363.562C316.449 353.738 310.189 343.851 303.882 334.01C296.8 322.977 289.656 312.005 282.589 300.972C274.283 287.985 265.884 275.077 257.857 261.92C255.656 258.309 252.665 255.071 251.302 250.98C252.185 250.406 252.836 250.561 253.378 250.902C270.316 261.672 287.223 272.489 304.16 283.243C323.826 295.718 343.506 308.147 363.218 320.544C367.418 323.194 368.27 322.915 370.687 318.746C376.685 308.41 382.62 298.043 388.679 287.737C389.903 285.645 389.903 284.359 387.532 283.12C371.602 274.829 355.749 266.383 339.818 258.092C317.844 246.656 295.808 235.328 273.849 223.876C272.625 223.241 271.091 222.636 270.455 221.133C271.866 219.847 273.338 220.25 274.701 220.296C295.281 221.009 315.86 221.598 336.393 223.148C346.513 223.907 356.616 223.07 366.813 224.372C378.529 225.875 390.508 225.193 402.378 225.457C405.415 225.519 406.779 224.139 406.764 220.978C406.671 209.108 406.702 197.237 406.733 185.367H406.671Z" fill="#FCC431"/>
</svg>
